
<!-- Generator: visioncortex VTracer 0.6.4 -->
<svg version="1.1" xmlns="http://www.w3.org/2000/svg" viewBox="0 0 1024 1024" preserveAspectRatio="xMidYMid meet">
<path d="M0 0 C15.296 13.01 26.631 32.662 29.25 52.688 C29.451 54.221 29.451 54.221 29.656 55.785 C32.024 79.216 25.693 101.402 11.25 120 C9.933 121.576 8.6 123.14 7.25 124.688 C6.72 125.301 6.19 125.915 5.645 126.547 C-7.443 140.636 -28.575 150.904 -47.75 151.688 C-48.909 151.739 -50.068 151.791 -51.262 151.844 C-75.633 152.567 -97.767 144.097 -115.75 127.688 C-132.685 111.478 -141.275 89.18 -142.062 65.938 C-141.594 43.775 -133.421 22.477 -117.75 6.688 C-116.904 5.801 -116.059 4.914 -115.188 4 C-114.383 3.237 -113.579 2.474 -112.75 1.688 C-112.017 0.928 -112.017 0.928 -111.27 0.152 C-80.547 -29.621 -31.564 -24.448 0 0 Z " fill="#1046B8" transform="translate(839.75,421.3125)"/>
<path d="M0 0 C17.31 14.577 28.654 33.822 31.273 56.438 C31.378 57.999 31.462 59.561 31.523 61.125 C31.563 61.874 31.603 62.623 31.645 63.395 C32.323 87.467 24.152 110.114 8.344 128.242 C-5.851 143.208 -25.739 153.607 -46.531 154.363 C-68.286 154.779 -85.69 150.87 -102.477 136.125 C-102.807 135.795 -103.137 135.465 -103.477 135.125 C-103.477 158.225 -103.477 181.325 -103.477 205.125 C-117.997 205.125 -132.517 205.125 -147.477 205.125 C-147.504 188.875 -147.528 172.625 -147.539 156.375 C-147.54 155.149 -147.541 153.923 -147.542 152.66 C-147.566 112.833 -147.375 73.013 -146.977 33.188 C-146.965 31.991 -146.953 30.795 -146.94 29.562 C-146.795 15.083 -146.637 0.604 -146.477 -13.875 C-132.947 -13.875 -119.417 -13.875 -105.477 -13.875 C-104.982 -7.44 -104.982 -7.44 -104.477 -0.875 C-103.445 -1.721 -102.414 -2.566 -101.352 -3.438 C-71.144 -25.776 -29.079 -22.355 0 0 Z M-96.414 35.062 C-107.296 47.927 -107.673 62.892 -106.477 79.125 C-105.288 87.911 -101.555 94.771 -95.477 101.125 C-94.88 101.75 -94.283 102.375 -93.668 103.02 C-83.127 113.078 -70.599 116.517 -56.422 116.424 C-43.982 116.086 -33.76 110.959 -25.164 101.938 C-16.021 90.973 -11.569 77.312 -12.477 63.125 C-14.105 50.218 -19.301 38.616 -29.055 29.793 C-49.996 13.668 -78.253 15.776 -96.414 35.062 Z " fill="#010101" transform="translate(314.4765625,418.875)"/>
<path d="M0 0 C13.86 0 27.72 0 42 0 C42.009 3.098 42.019 6.196 42.028 9.388 C42.062 19.646 42.118 29.904 42.184 40.162 C42.223 46.378 42.256 52.595 42.271 58.812 C42.286 64.816 42.321 70.82 42.368 76.824 C42.383 79.11 42.391 81.396 42.392 83.682 C42.394 86.895 42.421 90.106 42.454 93.318 C42.449 94.254 42.444 95.191 42.439 96.156 C42.585 105.486 45.504 113.393 51.938 120.242 C58.773 126.068 66.703 128.357 75.547 128.211 C84.642 127.429 94.036 123.506 100.113 116.598 C104.583 110.444 107.176 104.902 107.394 97.201 C107.43 96.065 107.466 94.929 107.503 93.758 C107.546 91.91 107.546 91.91 107.59 90.023 C107.627 88.715 107.663 87.407 107.701 86.059 C108.146 69.743 108.335 53.421 108.532 37.1 C108.593 32.148 108.658 27.195 108.723 22.243 C108.818 14.828 108.909 7.414 109 0 C122.86 0 136.72 0 151 0 C151.132 16.806 151.262 33.611 151.391 50.417 C151.451 58.224 151.511 66.031 151.573 73.838 C151.626 80.659 151.679 87.48 151.731 94.302 C151.758 97.898 151.786 101.495 151.815 105.091 C151.972 124.729 152.02 144.362 152 164 C138.14 164 124.28 164 110 164 C108.345 160.69 108.899 157.009 108.938 153.375 C108.942 152.573 108.947 151.771 108.951 150.945 C108.963 148.964 108.981 146.982 109 145 C108.587 145.496 108.175 145.993 107.75 146.504 C96.88 159.291 85.847 165.688 69 168 C49.834 169.464 32.555 164.412 17.734 152.121 C5.304 140.379 -0.19 123.872 -1.169 107.107 C-1.215 104.197 -1.199 101.296 -1.156 98.387 C-1.148 97.26 -1.14 96.133 -1.132 94.971 C-1.105 91.717 -1.068 88.463 -1.027 85.209 C-0.988 82.021 -0.957 78.833 -0.925 75.644 C-0.814 64.653 -0.677 53.662 -0.536 42.67 C-0.464 36.986 -0.394 31.302 -0.324 25.618 C-0.218 17.079 -0.109 8.539 0 0 Z " fill="#020202" transform="translate(423,405)"/>
<path d="M0 0 C14.19 0 28.38 0 43 0 C43 14.19 43 28.38 43 43 C54.88 43 66.76 43 79 43 C80.566 46.131 80.002 49.427 79.879 52.852 C79.858 53.538 79.838 54.224 79.816 54.93 C79.737 57.495 79.649 60.06 79.562 62.625 C79.284 71.226 79.284 71.226 79 80 C67.12 80 55.24 80 43 80 C43.091 93.49 43.091 93.49 43.209 106.98 C43.263 112.486 43.314 117.992 43.346 123.499 C43.373 127.94 43.413 132.382 43.463 136.823 C43.48 138.513 43.491 140.204 43.498 141.894 C43.507 144.271 43.535 146.647 43.568 149.023 C43.566 149.715 43.565 150.406 43.563 151.118 C43.658 156.113 44.63 160.6 47 165 C52.976 170.157 59.361 169.472 66.938 169.25 C70.918 169.168 74.899 169.085 79 169 C79 181.54 79 194.08 79 207 C56.55 209.806 34.868 211.888 15.473 198.219 C6.723 191.115 1.929 181.504 0.718 170.413 C-0.109 160.676 -0.128 150.994 -0.098 141.23 C-0.096 139.455 -0.094 137.68 -0.093 135.905 C-0.09 131.278 -0.08 126.65 -0.069 122.022 C-0.058 117.283 -0.054 112.543 -0.049 107.803 C-0.038 98.535 -0.021 89.268 0 80 C-7.92 80 -15.84 80 -24 80 C-23.67 67.79 -23.34 55.58 -23 43 C-15.41 42.67 -7.82 42.34 0 42 C0 28.14 0 14.28 0 0 Z " fill="#030303" transform="translate(609,362)"/>
<path d="M0 0 C14.19 0 28.38 0 43 0 C43 73.26 43 146.52 43 222 C28.81 222 14.62 222 0 222 C-1.303 218.092 -1.115 214.397 -1.082 210.325 C-1.079 209.428 -1.076 208.531 -1.073 207.607 C-1.06 204.59 -1.041 201.573 -1.022 198.556 C-1.012 196.398 -1.002 194.24 -0.993 192.082 C-0.966 186.212 -0.933 180.343 -0.899 174.473 C-0.865 168.343 -0.837 162.213 -0.807 156.084 C-0.751 144.471 -0.69 132.858 -0.627 121.245 C-0.555 108.026 -0.489 94.808 -0.424 81.589 C-0.289 54.393 -0.146 27.196 0 0 Z " fill="#030302" transform="translate(359,347)"/>
<path d="M0 0 C3.63 0 7.26 0 11 0 C15.62 8.58 20.24 17.16 25 26 C27.762 22.547 29.892 19.681 32.016 15.918 C32.544 14.987 33.073 14.055 33.617 13.096 C34.156 12.136 34.695 11.176 35.25 10.188 C35.804 9.208 36.359 8.229 36.93 7.221 C38.29 4.816 39.646 2.408 41 0 C44.63 0 48.26 0 52 0 C52 16.17 52 32.34 52 49 C48.7 49 45.4 49 42 49 C41.67 39.1 41.34 29.2 41 19 C37.04 25.93 33.08 32.86 29 40 C26.69 40 24.38 40 22 40 C18.04 32.74 14.08 25.48 10 18 C9.67 28.23 9.34 38.46 9 49 C6.03 49 3.06 49 0 49 C0 32.83 0 16.66 0 0 Z " fill="#0B0B0A" transform="translate(265,629)"/>
<path d="M0 0 C9 0 9 0 11.18 1.57 C11.668 2.296 12.157 3.022 12.66 3.77 C13.51 4.981 13.51 4.981 14.377 6.217 C14.933 7.073 15.489 7.93 16.062 8.812 C16.623 9.627 17.183 10.441 17.76 11.279 C19.522 13.842 21.261 16.421 23 19 C25.64 22.63 28.28 26.26 31 30 C31.33 20.1 31.66 10.2 32 0 C35.3 0 38.6 0 42 0 C42 16.17 42 32.34 42 49 C34 49 34 49 31.672 47.191 C31.038 46.324 30.403 45.456 29.75 44.562 C29.01 43.574 28.27 42.585 27.508 41.566 C26.669 40.38 25.833 39.191 25 38 C23.956 36.53 22.912 35.06 21.867 33.59 C20.257 31.318 18.655 29.043 17.073 26.752 C16.588 26.05 16.102 25.348 15.602 24.625 C15.172 23.999 14.742 23.372 14.299 22.727 C12.829 20.69 12.829 20.69 10 18 C10 28.23 10 38.46 10 49 C6.7 49 3.4 49 0 49 C0 32.83 0 16.66 0 0 Z " fill="#0E0E0D" transform="translate(662,629)"/>
<path d="M0 0 C2.465 2.042 4.578 4.108 6 7 C5.67 7.99 5.34 8.98 5 10 C1.438 11.188 1.438 11.188 -2 12 C-2.557 11.381 -3.114 10.763 -3.688 10.125 C-6.719 7.339 -8.922 6.035 -13.109 5.965 C-18.366 6.326 -21.94 7.435 -26 11 C-29.061 17.175 -28.899 23.91 -27 30.438 C-24.207 34.016 -21.374 35.787 -17 37 C-12.637 37.232 -9.043 36.413 -5 34.812 C-2.336 32.398 -2.234 30.51 -2 27 C-5.63 27 -9.26 27 -13 27 C-13 24.69 -13 22.38 -13 20 C-6.4 20 0.2 20 7 20 C8.07 34.264 8.07 34.264 5.312 38.738 C-0.167 43.789 -6.254 46.851 -13.73 47.086 C-21.606 46.673 -27.787 44.617 -33.312 38.875 C-37.952 32.984 -39.793 25.399 -39 18 C-37.654 11.088 -35.475 5.605 -30 1 C-20.107 -5.252 -10.458 -5.393 0 0 Z " fill="#090808" transform="translate(761,632)"/>
<path d="M0 0 C24 0 24 0 31 3 C35.548 7.907 36.299 11.009 36.215 17.531 C35.718 23.243 31.878 26.16 28 30 C28.65 31.12 29.299 32.24 29.969 33.395 C30.813 34.867 31.657 36.34 32.5 37.812 C32.929 38.55 33.359 39.288 33.801 40.049 C34.207 40.761 34.613 41.473 35.031 42.207 C35.597 43.189 35.597 43.189 36.174 44.191 C37 46 37 46 37 49 C34.03 49 31.06 49 28 49 C26.704 46.773 25.413 44.544 24.125 42.312 C23.76 41.687 23.395 41.061 23.02 40.416 C21.063 37.018 19.344 33.699 18 30 C14.04 30.495 14.04 30.495 10 31 C10.012 32.216 10.023 33.431 10.035 34.684 C10.045 36.268 10.054 37.853 10.062 39.438 C10.071 40.24 10.079 41.042 10.088 41.869 C10.097 43.913 10.052 45.957 10 48 C9.505 48.495 9.505 48.495 9 49 C6.03 49 3.06 49 0 49 C0 32.83 0 16.66 0 0 Z M9 9 C9 13.29 9 17.58 9 22 C11.249 22.108 13.499 22.186 15.75 22.25 C17.629 22.32 17.629 22.32 19.547 22.391 C23.035 22.284 23.035 22.284 25.461 20.211 C27.361 17.953 27.361 17.953 26.875 14.375 C26.293 10.955 26.293 10.955 24 9 C21.419 8.855 18.951 8.813 16.375 8.875 C15.669 8.884 14.962 8.893 14.234 8.902 C12.489 8.926 10.745 8.962 9 9 Z " fill="#080808" transform="translate(400,629)"/>
<path d="M0 0 C5.424 -0.021 10.849 -0.041 16.438 -0.062 C18.151 -0.072 19.865 -0.081 21.631 -0.09 C22.982 -0.093 24.333 -0.096 25.684 -0.098 C26.391 -0.103 27.098 -0.108 27.827 -0.113 C29.552 -0.113 31.276 -0.062 33 0 C34 1 34 1 34.125 4.5 C34 8 34 8 33 9 C31.292 9.087 29.581 9.107 27.871 9.098 C26.319 9.093 26.319 9.093 24.736 9.088 C23.648 9.08 22.559 9.071 21.438 9.062 C19.799 9.056 19.799 9.056 18.127 9.049 C15.418 9.037 12.709 9.019 10 9 C10 12.63 10 16.26 10 20 C16.6 20 23.2 20 30 20 C30 22.64 30 25.28 30 28 C23.4 28 16.8 28 10 28 C10 31.96 10 35.92 10 40 C17.92 40 25.84 40 34 40 C34 42.97 34 45.94 34 49 C22.78 49 11.56 49 0 49 C0 32.83 0 16.66 0 0 Z " fill="#0F0F0E" transform="translate(518,629)"/>
<path d="M0 0 C2.97 0 5.94 0 9 0 C9.902 2.707 10.119 4.238 10.098 7.012 C10.094 7.769 10.091 8.526 10.088 9.307 C10.08 10.092 10.071 10.878 10.062 11.688 C10.058 12.485 10.053 13.282 10.049 14.104 C10.037 16.069 10.019 18.035 10 20 C12.441 17.42 14.877 14.835 17.312 12.25 C18.003 11.52 18.693 10.791 19.404 10.039 C20.071 9.33 20.738 8.621 21.426 7.891 C22.038 7.241 22.651 6.592 23.282 5.923 C25.054 4.015 25.054 4.015 26.555 1.781 C28 0 28 0 30.699 -0.391 C32.178 -0.321 32.178 -0.321 33.688 -0.25 C34.681 -0.214 35.675 -0.178 36.699 -0.141 C37.458 -0.094 38.218 -0.048 39 0 C37.647 2.997 36.117 5.16 33.848 7.531 C33.236 8.177 32.624 8.823 31.994 9.488 C31.357 10.152 30.719 10.816 30.062 11.5 C28.802 12.821 27.542 14.144 26.285 15.469 C25.448 16.342 25.448 16.342 24.594 17.232 C22.933 19.074 21.458 20.996 20 23 C20.617 23.666 21.235 24.333 21.871 25.02 C35.747 40.12 35.747 40.12 41 48 C38.855 50.145 35.923 49.999 33.043 50.016 C25.953 47.649 21.351 39.788 17 34 C16.38 33.18 15.76 32.36 15.121 31.516 C14.751 31.015 14.381 30.515 14 30 C12.02 30.99 12.02 30.99 10 32 C10.012 33.143 10.023 34.287 10.035 35.465 C10.045 36.956 10.054 38.447 10.062 39.938 C10.071 40.692 10.079 41.447 10.088 42.225 C10.097 44.15 10.052 46.075 10 48 C9.505 48.495 9.505 48.495 9 49 C6.03 49 3.06 49 0 49 C0 32.83 0 16.66 0 0 Z " fill="#0B0B0B" transform="translate(459,629)"/>
<path d="M0 0 C3.63 0 7.26 0 11 0 C13.43 6.332 15.85 12.668 18.263 19.006 C19.085 21.163 19.91 23.318 20.737 25.472 C21.925 28.568 23.104 31.666 24.281 34.766 C24.653 35.729 25.025 36.693 25.408 37.686 C25.748 38.586 26.089 39.487 26.439 40.415 C26.892 41.601 26.892 41.601 27.355 42.811 C28 45 28 45 28 49 C25.03 49 22.06 49 19 49 C17.68 45.7 16.36 42.4 15 39 C8.4 38.67 1.8 38.34 -5 38 C-5.33 39.98 -5.66 41.96 -6 44 C-6.622 45.684 -7.275 47.358 -8 49 C-10.97 49 -13.94 49 -17 49 C-16.415 43.137 -14.763 38.121 -12.656 32.637 C-12.327 31.764 -11.998 30.89 -11.659 29.991 C-10.613 27.22 -9.556 24.454 -8.5 21.688 C-7.79 19.809 -7.08 17.931 -6.371 16.053 C-5.076 12.63 -3.78 9.207 -2.475 5.788 C-2.213 5.103 -1.952 4.418 -1.683 3.712 C-1 2 -1 2 0 0 Z M5 11 C3.831 13.978 2.665 16.958 1.5 19.938 C1.166 20.788 0.832 21.638 0.488 22.514 C0.172 23.323 -0.143 24.131 -0.469 24.965 C-0.762 25.714 -1.055 26.463 -1.357 27.234 C-2.057 28.843 -2.057 28.843 -2 30 C2.95 30 7.9 30 13 30 C10.69 23.73 8.38 17.46 6 11 C5.67 11 5.34 11 5 11 Z " fill="#0B0B0A" transform="translate(353,629)"/>
<path d="M0 0 C13.2 0 26.4 0 40 0 C40 2.97 40 5.94 40 9 C35.05 9 30.1 9 25 9 C25 22.2 25 35.4 25 49 C21.7 49 18.4 49 15 49 C15 35.8 15 22.6 15 9 C10.05 9 5.1 9 0 9 C0 6.03 0 3.06 0 0 Z " fill="#141413" transform="translate(570,629)"/>
<path d="M0 0 C2.97 0 5.94 0 9 0 C10.587 1.587 10.127 3.212 10.129 5.412 C10.133 6.35 10.136 7.287 10.139 8.254 C10.137 9.273 10.135 10.293 10.133 11.344 C10.134 12.383 10.135 13.423 10.136 14.494 C10.136 16.696 10.135 18.899 10.13 21.101 C10.125 24.485 10.13 27.87 10.137 31.254 C10.136 33.388 10.135 35.522 10.133 37.656 C10.135 38.676 10.137 39.696 10.139 40.746 C10.136 41.684 10.133 42.622 10.129 43.588 C10.128 44.832 10.128 44.832 10.127 46.102 C10 48 10 48 9 49 C6.03 49 3.06 49 0 49 C0 32.83 0 16.66 0 0 Z " fill="#111110" transform="translate(630,629)"/>
<path d="M0 0 C2.45 2.45 2.984 4.48 4.125 7.75 C11.926 28.354 25.87 44.367 46.004 53.84 C53.197 56.625 60.613 58.793 68 61 C68 61.33 68 61.66 68 62 C48.159 60.974 30.77 49.373 17.375 35.375 C9.317 26.073 0 12.672 0 0 Z " fill="#203992" transform="translate(702,509)"/>
<path d="M0 0 C3.155 1.363 4.932 2.818 7.062 5.5 C9.009 7.937 10.334 9.223 13 11 C12.67 11.66 12.34 12.32 12 13 C7.175 9.042 3.166 5.408 0 0 Z " fill="#274096" transform="translate(717,540)"/>
</svg>